# xmcd
# 
# Track frame offsets:
#     150
#     20646
#     36622
#     52186
#     70899
#     87005
#     106025
#     128775
#     144258
#     163994
#     186055
#     201997
#     218016
#     240554
# 
# Disc length: 3533
# 
# Revision: 3
# Processed by: cddbd v1.5.2PL0 Copyright (c) Steve Scherf et al.
# Submitted via: fre:ac v1.1beta1
# 
DISCID=ca0dcb0e
DTITLE=Children Of Bodom - Hexed
DYEAR=2019
DGENRE=Melodic Death Metal
TTITLE0=This Road
TTITLE1=Under Grass And Clover
TTITLE2=Glass Houses
TTITLE3=Hecate's Nightmare
TTITLE4=Kick In The Spleen
TTITLE5=Platitudes And Barren Words
TTITLE6=Hexed
TTITLE7=Relapse (The Nature Of My Crime)
TTITLE8=Say Never Look Back
TTITLE9=Soon Departed
TTITLE10=Knuckleduster
TTITLE11=I Worship Chaos (Live)
TTITLE12=Morrigan (Live)
TTITLE13=Knuckleduster (Remix)
EXTD=YEAR: 2019\n\nMARO\n
EXTT0=
EXTT1=
EXTT2=
EXTT3=
EXTT4=
EXTT5=
EXTT6=
EXTT7=
EXTT8=
EXTT9=
EXTT10=
EXTT11=
EXTT12=
EXTT13=
PLAYORDER=
